<?xml version="1.0" standalone="no"?>
<!DOCTYPE svg PUBLIC "-//W3C//DTD SVG 20010904//EN"
 "http://www.w3.org/TR/2001/REC-SVG-20010904/DTD/svg10.dtd">
<svg version="1.0" xmlns="http://www.w3.org/2000/svg"
 width="1024.000000pt" height="1024.000000pt" viewBox="0 0 1024.000000 1024.000000"
 preserveAspectRatio="xMidYMid meet">
<metadata>
Created by potrace 1.14, written by Peter Selinger 2001-2017
</metadata>
<g transform="translate(0.000000,1024.000000) scale(0.100000,-0.100000)"
fill="#000000" stroke="none">
<path d="M0 7078 c0 -1739 2 -3159 5 -3157 13 14 85 131 85 139 0 6 5 10 10
10 6 0 10 6 10 13 1 16 39 65 40 49 0 -7 -5 -18 -11 -25 -5 -7 -39 -56 -75
-111 l-64 -98 0 -1949 0 -1949 1998 0 1997 0 -77 78 c-43 42 -81 81 -85 87
-17 22 44 -34 105 -97 l65 -68 3119 0 3118 0 0 2057 0 2056 -27 36 c-15 20
-42 51 -60 70 -18 19 -30 37 -28 39 4 5 68 -63 102 -107 10 -13 12 502 13
2417 0 1337 -2 2432 -5 2432 -4 0 -20 -7 -38 -17 -28 -14 -30 -14 -19 -1 7 9
24 19 37 22 l25 6 0 615 0 615 -5120 0 -5120 0 0 -3162z m4870 -388 c0 -5 -4
-10 -9 -10 -5 0 -17 -3 -27 -7 -16 -6 -17 -5 -4 10 17 18 40 22 40 7z m-24
-67 c-10 -10 -19 5 -10 18 6 11 8 11 12 0 2 -7 1 -15 -2 -18z m-6 -54 c0 -5
-4 -9 -10 -9 -5 0 -10 7 -10 16 0 8 5 12 10 9 6 -3 10 -10 10 -16z m-14 -66
c-10 -10 -19 5 -10 18 6 11 8 11 12 0 2 -7 1 -15 -2 -18z m-10 -60 c-10 -10
-19 5 -10 18 6 11 8 11 12 0 2 -7 1 -15 -2 -18z m-6 -53 c0 -5 -4 -10 -10 -10
-5 0 -10 5 -10 10 0 6 5 10 10 10 6 0 10 -4 10 -10z m-10 -56 c0 -8 -5 -12
-10 -9 -6 4 -8 11 -5 16 9 14 15 11 15 -7z m360 -9 c11 -13 10 -14 -4 -9 -9 3
-16 10 -16 15 0 13 6 11 20 -6z m-370 -45 c0 -5 -5 -10 -11 -10 -5 0 -7 5 -4
10 3 6 8 10 11 10 2 0 4 -4 4 -10z m405 0 c3 -6 -1 -7 -9 -4 -18 7 -21 14 -7
14 6 0 13 -4 16 -10z m30 -40 c3 -5 1 -10 -4 -10 -6 0 -11 5 -11 10 0 6 2 10
4 10 3 0 8 -4 11 -10z m-445 -20 c0 -5 -4 -10 -10 -10 -5 0 -10 5 -10 10 0 6
5 10 10 10 6 0 10 -4 10 -10z m497 -42 c30 -34 37 -49 19 -42 -9 3 -16 12 -16
20 0 7 -10 20 -22 28 -12 9 -18 16 -12 16 6 0 20 -10 31 -22z m-507 -18 c0 -5
-4 -10 -10 -10 -5 0 -10 5 -10 10 0 6 5 10 10 10 6 0 10 -4 10 -10z m-10 -60
c0 -5 -4 -10 -10 -10 -5 0 -10 5 -10 10 0 6 5 10 10 10 6 0 10 -4 10 -10z
m580 0 c0 -5 -4 -10 -9 -10 -6 0 -13 5 -16 10 -3 6 1 10 9 10 9 0 16 -4 16
-10z m-1050 -20 c0 -5 -5 -10 -11 -10 -5 0 -7 5 -4 10 3 6 8 10 11 10 2 0 4
-4 4 -10z m1084 -26 c4 -10 1 -14 -6 -12 -15 5 -23 28 -10 28 5 0 13 -7 16
-16z m-628 -21 c-10 -10 -19 5 -10 18 6 11 8 11 12 0 2 -7 1 -15 -2 -18z m664
-30 c0 -13 -3 -13 -15 -3 -8 7 -15 16 -15 21 0 5 7 6 15 3 8 -4 15 -13 15 -21z
m-670 -23 c0 -5 -4 -10 -10 -10 -5 0 -10 5 -10 10 0 6 5 10 10 10 6 0 10 -4
10 -10z m703 -14 c4 -10 1 -13 -9 -9 -7 3 -14 9 -14 14 0 14 17 10 23 -5z m35
-44 c6 -18 -15 -14 -22 4 -4 10 -1 14 6 12 6 -2 14 -10 16 -16z m-748 -2 c0
-5 -4 -10 -10 -10 -5 0 -10 5 -10 10 0 6 5 10 10 10 6 0 10 -4 10 -10z m780
-38 c0 -5 9 -18 21 -30 11 -13 19 -28 16 -35 -2 -7 -11 3 -21 21 -9 17 -21 32
-26 32 -6 0 -10 5 -10 10 0 6 5 10 10 10 6 0 10 -4 10 -8z m-790 -22 c0 -5 -4
-10 -10 -10 -5 0 -10 5 -10 10 0 6 5 10 10 10 6 0 10 -4 10 -10z m-760 -44 c0
-2 -8 -10 -17 -17 -16 -13 -17 -12 -4 4 13 16 21 21 21 13z m750 -16 c0 -5 -4
-10 -10 -10 -5 0 -10 5 -10 10 0 6 5 10 10 10 6 0 10 -4 10 -10z m880 -21 c0
-4 -7 -6 -15 -3 -8 4 -15 10 -15 15 0 4 7 6 15 3 8 -4 15 -10 15 -15z m-1709
-60 c-26 -24 -27 -16 -3 16 9 13 19 19 21 13 2 -5 -6 -18 -18 -29z m819 31 c0
-5 -5 -10 -11 -10 -5 0 -7 5 -4 10 3 6 8 10 11 10 2 0 4 -4 4 -10z m920 -15
c11 -13 10 -14 -4 -9 -9 3 -16 10 -16 15 0 13 6 11 20 -6z m35 -43 c-3 -3 -11
0 -18 7 -9 10 -8 11 6 5 10 -3 15 -9 12 -12z m-965 -2 c0 -5 -5 -10 -11 -10
-5 0 -7 5 -4 10 3 6 8 10 11 10 2 0 4 -4 4 -10z m-850 -25 c0 -2 -10 -10 -22
-16 -21 -11 -22 -11 -9 4 13 16 31 23 31 12z m849 -52 c10 -19 9 -22 -4 -17
-8 3 -12 10 -9 15 3 5 0 9 -6 9 -6 0 -8 5 -5 11 8 12 8 12 24 -18z m1031 -4
c0 -6 -4 -7 -10 -4 -5 3 -10 11 -10 16 0 6 5 7 10 4 6 -3 10 -11 10 -16z
m-1955 -28 c-3 -6 -11 -11 -17 -11 -6 0 -6 6 2 15 14 17 26 13 15 -4z m1995
-22 c0 -6 -4 -7 -10 -4 -5 3 -10 11 -10 16 0 6 5 7 10 4 6 -3 10 -11 10 -16z
m-1020 -29 c0 -5 -4 -10 -10 -10 -5 0 -10 5 -10 10 0 6 5 10 10 10 6 0 10 -4
10 -10z m-1030 -16 c-8 -8 -23 -20 -34 -26 -20 -11 -20 -10 -6 8 18 23 32 34
44 34 5 0 3 -7 -4 -16z m2090 -4 c0 -5 -7 -7 -15 -4 -8 4 -12 10 -9 15 6 11
24 2 24 -11z m-1030 -33 c0 -4 -6 -2 -14 5 -8 7 -12 17 -9 22 5 8 23 -12 23
-27z m4144 -14 c3 -7 -3 -11 -14 -10 -11 1 -22 8 -25 16 -5 11 -10 10 -28 -6
-12 -11 -35 -28 -52 -38 l-30 -18 30 30 c17 16 33 28 36 27 3 -2 13 6 22 17
14 16 20 17 37 7 11 -7 22 -18 24 -25z m-3084 6 c0 -5 -4 -9 -10 -9 -5 0 -10
7 -10 16 0 8 5 12 10 9 6 -3 10 -10 10 -16z m-2188 -31 c-12 -12 -24 -19 -27
-16 -4 3 4 15 16 27 29 27 39 17 11 -11z m1148 12 c0 -5 -4 -10 -10 -10 -5 0
-10 5 -10 10 0 6 5 10 10 10 6 0 10 -4 10 -10z m1080 -32 c0 -6 -7 -5 -15 2
-8 7 -15 17 -15 22 0 6 7 5 15 -2 8 -7 15 -17 15 -22z m3040 4 c0 -10 5 -23
11 -29 6 -6 9 -17 7 -25 -3 -7 -12 4 -22 26 -19 45 -19 46 -6 46 6 0 10 -8 10
-18z m55 -2 c16 -17 16 -20 3 -15 -9 4 -19 13 -22 21 -7 19 -2 18 19 -6z
m-4152 -11 c4 -16 3 -18 -9 -8 -16 13 -19 29 -5 29 5 0 11 -9 14 -21z m3940
-14 c-3 -9 -8 -14 -10 -11 -3 3 -2 9 2 15 9 16 15 13 8 -4z m-2856 -21 c-9 -9
-28 6 -21 18 4 6 10 6 17 -1 6 -6 8 -13 4 -17z m-2307 6 c0 -5 -9 -14 -20 -20
-19 -10 -20 -10 -8 9 13 22 28 28 28 11z m5132 -7 c-7 -3 -22 -14 -33 -26 -13
-15 -19 -17 -19 -6 0 14 51 50 60 41 3 -3 -1 -7 -8 -9z m293 1 c9 -9 13 -19
10 -22 -3 -3 -15 4 -27 16 -13 12 -17 22 -11 22 6 0 19 -7 28 -16z m-4175 -4
c0 -5 -4 -10 -10 -10 -5 0 -10 5 -10 10 0 6 5 10 10 10 6 0 10 -4 10 -10z m15
-30 c-3 -5 -1 -10 5 -10 6 0 8 -5 4 -11 -4 -8 -9 -7 -15 2 -7 12 -3 29 7 29 3
0 2 -4 -1 -10z m1076 -3 c-1 -12 -15 -9 -19 4 -3 6 1 10 8 8 6 -3 11 -8 11
-12z m3019 -2 c0 -8 -4 -15 -10 -15 -5 0 -10 7 -10 15 0 8 5 15 10 15 6 0 10
-7 10 -15z m-298 -17 c-6 -6 -15 -8 -19 -4 -4 4 -1 11 7 16 19 12 27 3 12 -12z
m424 -5 c-7 -7 -26 7 -26 19 0 6 6 6 15 -2 9 -7 13 -15 11 -17z m-5557 -15
c-9 -16 -14 -19 -17 -9 -2 7 2 17 9 22 20 13 21 11 8 -13z m2449 0 c16 -16 15
-29 -2 -22 -16 6 -30 34 -18 34 5 0 13 -5 20 -12z m2644 -10 c-7 -7 -12 -8
-12 -2 0 14 12 26 19 19 2 -3 -1 -11 -7 -17z m-3722 2 c0 -5 -2 -10 -4 -10 -3
0 -8 5 -11 10 -3 6 -1 10 4 10 6 0 11 -4 11 -10z m4080 -11 c0 -5 -4 -9 -10
-9 -5 0 -10 7 -10 16 0 8 5 12 10 9 6 -3 10 -10 10 -16z m165 -27 c-7 -7 -45
29 -45 41 0 6 11 0 25 -13 14 -13 23 -26 20 -28z m-559 13 c-9 -9 -16 -13 -16
-8 0 12 22 34 28 28 2 -2 -3 -11 -12 -20z m-2568 -24 c3 -8 -1 -12 -9 -9 -7 2
-15 10 -17 17 -3 8 1 12 9 9 7 -2 15 -10 17 -17z m2537 0 c-3 -6 -11 -11 -17
-11 -6 0 -6 6 2 15 14 17 26 13 15 -4z m434 5 c7 -8 8 -17 3 -20 -6 -3 -12 3
-15 14 -6 24 -4 25 12 6z m-5509 -3 c0 -5 -17 -21 -38 -37 l-37 -29 34 36 c36
39 41 42 41 30z m1450 3 c0 -3 -4 -8 -10 -11 -5 -3 -10 -1 -10 4 0 6 5 11 10
11 6 0 10 -2 10 -4z m4285 -48 c28 -29 41 -45 30 -37 -20 14 -85 80 -85 86 0
8 9 0 55 -49z m-8030 -17 c-3 -3 -10 1 -14 8 -7 11 -11 10 -21 -5 -11 -18 -11
-18 -6 -1 3 10 6 26 6 35 1 14 5 12 21 -7 11 -13 17 -26 14 -30z m7335 41 c0
-5 -10 -14 -22 -20 -13 -7 -34 -19 -48 -29 -36 -25 -19 -7 26 27 44 33 44 33
44 22z m-3574 -11 c-3 -5 1 -12 10 -15 8 -3 12 -10 9 -16 -3 -5 -1 -10 6 -10
7 0 9 -3 5 -7 -4 -4 -16 3 -26 17 -22 28 -25 40 -9 40 5 0 8 -4 5 -9z m1114
-1 c8 -5 11 -10 5 -10 -5 0 -17 5 -25 10 -8 5 -10 10 -5 10 6 0 17 -5 25 -10z
m-4943 -28 c-15 -15 -27 -31 -27 -35 0 -4 -25 -31 -55 -61 -30 -29 -55 -57
-55 -62 0 -5 -25 -32 -55 -59 -30 -26 -55 -53 -55 -58 0 -5 -22 -30 -48 -55
-27 -26 -57 -60 -67 -75 -10 -15 -27 -33 -39 -39 -20 -11 -20 -10 -6 8 8 10
26 30 40 44 23 24 73 78 295 323 49 53 91 97 94 97 3 0 -7 -13 -22 -28z m7899
1 c-7 -7 -26 7 -26 19 0 6 6 6 15 -2 9 -7 13 -15 11 -17z m-2826 -60 c0 -5
-81 40 -97 54 -30 27 -9 21 42 -13 30 -20 55 -39 55 -41z m-4940 -17 c0 -3 -5
-6 -12 -6 -6 0 -9 3 -5 6 3 3 -3 15 -14 27 -10 11 -19 25 -19 30 0 5 11 -5 25
-21 14 -17 25 -33 25 -36z m2160 61 c0 -2 -15 -16 -32 -33 l-33 -29 29 33 c28
30 36 37 36 29z m5620 -22 c0 -8 -2 -15 -4 -15 -2 0 -6 7 -10 15 -3 8 -1 15 4
15 6 0 10 -7 10 -15z m-610 1 c0 -2 -24 -20 -52 -40 -29 -19 -83 -58 -120 -86
-38 -27 -68 -46 -68 -41 0 5 16 19 35 31 19 12 35 26 35 31 0 5 5 9 10 9 6 0
41 22 78 50 61 45 82 57 82 46z m999 -139 c2 -5 -12 4 -30 19 -49 42 -119 113
-119 120 0 8 144 -126 149 -139z m-371 78 c-3 -3 -9 2 -12 12 -6 14 -5 15 5 6
7 -7 10 -15 7 -18z m-5688 10 c0 -2 -10 -10 -22 -16 -21 -11 -22 -11 -9 4 13
16 31 23 31 12z m2910 -21 c0 -2 -9 0 -20 6 -11 6 -20 13 -20 16 0 2 9 0 20
-6 11 -6 20 -13 20 -16z m-4962 -38 c44 -58 48 -66 31 -66 -5 0 -8 4 -5 9 4 5
3 11 -1 13 -14 5 -85 98 -76 98 5 0 27 -24 51 -54z m5042 -8 c0 -12 -38 4 -55
22 -16 18 -15 18 19 2 19 -10 35 -20 36 -24z m2693 25 c-7 -3 -13 -9 -13 -15
0 -6 -11 -19 -26 -30 -14 -11 -23 -22 -21 -25 3 -2 -7 -17 -21 -32 -43 -45
-85 -95 -111 -129 -13 -18 -29 -32 -35 -31 -6 0 -6 3 2 6 6 2 12 9 12 15 0 6
10 21 23 34 12 13 32 36 45 51 24 29 53 63 112 132 19 22 37 38 40 34 3 -3 -1
-8 -7 -10z m-5755 -35 c-2 -6 -10 -14 -16 -16 -7 -2 -10 2 -6 12 7 18 28 22
22 4z m1787 -8 c3 -5 1 -10 -4 -10 -6 0 -11 5 -11 10 0 6 2 10 4 10 3 0 8 -4
11 -10z m1305 0 c0 -5 -5 -10 -11 -10 -5 0 -7 5 -4 10 3 6 8 10 11 10 2 0 4
-4 4 -10z m3081 -37 l24 -27 -24 15 c-14 9 -27 21 -29 27 -6 19 3 14 29 -15z
m-4366 7 c3 -5 1 -10 -4 -10 -6 0 -11 5 -11 10 0 6 2 10 4 10 3 0 8 -4 11 -10z
m1335 0 c0 -5 -5 -10 -11 -10 -5 0 -7 5 -4 10 3 6 8 10 11 10 2 0 4 -4 4 -10z
m1740 -10 c0 -5 -5 -10 -11 -10 -5 0 -7 5 -4 10 3 6 8 10 11 10 2 0 4 -4 4
-10z m-4940 -19 c-11 -21 -29 -36 -35 -29 -3 2 2 14 11 26 19 28 39 30 24 3z
m3243 6 c4 3 7 1 7 -5 0 -14 -2 -14 -24 -6 -9 3 -16 11 -16 16 0 7 5 6 13 -1
8 -6 17 -8 20 -4z m-5093 -11 c0 -7 10 -24 23 -38 36 -40 67 -86 67 -100 0 -7
-12 5 -27 27 -23 36 -53 75 -84 113 -7 9 -6 12 6 12 8 0 15 -6 15 -14z m6755
-6 c-3 -5 -11 -10 -16 -10 -6 0 -7 5 -4 10 3 6 11 10 16 10 6 0 7 -4 4 -10z
m1390 -28 c-6 -7 -35 18 -35 31 0 5 9 2 20 -8 11 -10 18 -20 15 -23z m-3015
17 c0 -5 5 -7 12 -3 7 4 8 3 4 -4 -4 -6 -13 -9 -21 -5 -17 6 -20 23 -5 23 6 0
10 -5 10 -11z m1580 -24 c-7 -9 -15 -13 -17 -11 -6 6 20 36 26 30 2 -2 -2 -10
-9 -19z m-6978 -8 c-6 -7 -13 -39 -17 -72 -12 -103 -13 -109 -23 -135 -16 -37
-14 -18 8 110 11 63 20 116 20 118 0 2 5 0 10 -3 7 -4 8 -11 2 -18z m4038 -22
c0 -5 -5 -3 -10 5 -5 8 -10 20 -10 25 0 6 5 3 10 -5 5 -8 10 -19 10 -25z
m1410 25 c0 -5 6 -10 14 -10 7 0 19 -7 26 -15 16 -20 5 -19 -31 2 -29 17 -38
33 -19 33 6 0 10 -4 10 -10z m1492 -22 c-7 -7 -12 -8 -12 -2 0 14 12 26 19 19
2 -3 -1 -11 -7 -17z m1522 -4 c3 -8 2 -14 -2 -14 -10 0 -32 22 -32 32 0 12 28
-2 34 -18z m-6406 4 c-3 -7 -13 -15 -24 -17 -16 -3 -17 -1 -5 13 16 19 34 21
29 4z m4848 -26 c-18 -16 -18 -16 -6 6 6 13 14 21 18 18 3 -4 -2 -14 -12 -24z
m-2846 -2 c0 -5 -2 -10 -4 -10 -3 0 -8 5 -11 10 -3 6 -1 10 4 10 6 0 11 -4 11
-10z m1470 0 c0 -5 -4 -10 -10 -10 -5 0 -10 5 -10 10 0 6 5 10 10 10 6 0 10
-4 10 -10z m1340 -25 c-7 -9 -15 -13 -18 -10 -3 2 1 11 8 20 7 9 15 13 18 10
3 -2 -1 -11 -8 -20z m1668 -20 c25 -25 41 -45 36 -45 -6 0 -29 20 -53 45 -24
25 -40 45 -36 45 4 0 28 -20 53 -45z m-2958 14 c0 -14 -16 -11 -29 5 -10 12
-8 13 8 9 12 -3 21 -9 21 -14z m-1530 -31 c-23 -35 -23 -31 -1 15 8 15 16 25
19 22 2 -2 -5 -19 -18 -37z m-2056 17 c-6 -16 -24 -21 -24 -7 0 11 11 22 21
22 5 0 6 -7 3 -15z m4825 -14 c-13 -11 -28 -20 -34 -20 -5 0 3 11 20 24 16 13
31 22 34 20 2 -3 -7 -13 -20 -24z m-1203 1 c1 -7 0 -8 -3 -2 -2 5 -9 8 -14 4
-5 -3 -9 0 -9 6 0 15 23 7 26 -8z m-5226 4 c0 -3 -4 -8 -10 -11 -5 -3 -10 -1
-10 4 0 6 5 11 10 11 6 0 10 -2 10 -4z m5258 -31 c-3 -3 -9 2 -12 12 -6 14 -5
15 5 6 7 -7 10 -15 7 -18z m2042 -4 c-12 -24 -30 -36 -30 -22 0 6 5 11 10 11
6 0 9 3 9 8 -3 15 1 22 11 22 7 0 7 -6 0 -19z m-1991 -24 c0 -9 -2 -9 -6 1 -2
6 -8 10 -13 7 -4 -3 -11 2 -14 10 -4 13 -2 14 14 5 11 -6 20 -16 19 -23z
m1071 25 c0 -5 -20 -22 -45 -40 -57 -40 -59 -28 -2 15 48 36 47 36 47 25z
m-6346 -17 c3 -8 1 -15 -3 -15 -5 0 -11 7 -15 15 -3 8 -1 15 3 15 5 0 11 -7
15 -15z m8197 -11 c22 -25 22 -26 3 -16 -12 6 -24 18 -28 27 -8 21 -3 19 25
-11z m-6681 11 c0 -2 -15 -19 -34 -38 -18 -18 -35 -38 -37 -43 -2 -5 -17 -20
-33 -34 l-30 -25 20 25 c63 82 114 133 114 115z m2061 -37 c-11 -18 -21 -29
-21 -25 0 13 33 67 38 62 3 -2 -5 -19 -17 -37z m1727 7 c-3 -3 -9 2 -12 12 -6
14 -5 15 5 6 7 -7 10 -15 7 -18z m-6169 -30 c-13 -14 -46 -49 -74 -78 -27 -29
-60 -66 -72 -82 -13 -16 -25 -27 -27 -24 -3 2 39 52 92 111 53 59 98 105 101
103 2 -3 -7 -16 -20 -30z m891 21 c0 -8 10 -22 22 -30 12 -9 19 -16 14 -16 -5
0 -2 -8 6 -17 18 -22 31 -43 25 -43 -5 0 -87 109 -87 115 0 3 5 5 10 5 6 0 10
-6 10 -14z m7204 -2 c10 -25 -1 -29 -14 -5 -6 12 -7 21 -1 21 5 0 12 -7 15
-16z m-1884 -4 c8 -5 12 -11 10 -14 -3 -2 -14 2 -24 10 -22 15 -10 19 14 4z
m59 -37 c2 -2 -3 -3 -11 -3 -9 0 -19 7 -22 16 -6 15 -4 15 11 3 10 -7 20 -15
22 -16z m841 23 c0 -3 -4 -8 -10 -11 -5 -3 -10 -1 -10 4 0 6 5 11 10 11 6 0
10 -2 10 -4z m1010 -16 c0 -5 -5 -10 -11 -10 -5 0 -7 5 -4 10 3 6 8 10 11 10
2 0 4 -4 4 -10z m-1045 -9 c-8 -15 -137 -103 -133 -92 4 11 119 99 131 100 5
1 6 -3 2 -8z m2075 -26 c44 -45 32 -45 -17 0 -21 19 -33 35 -27 35 5 0 25 -16
44 -35z m-8737 -9 c-3 -4 -9 -2 -14 5 -13 22 -11 31 5 17 8 -7 12 -17 9 -22z
m5887 13 c0 -6 -4 -7 -10 -4 -5 3 -10 11 -10 16 0 6 5 7 10 4 6 -3 10 -11 10
-16z m1840 1 c0 -5 -5 -10 -11 -10 -5 0 -7 5 -4 10 3 6 8 10 11 10 2 0 4 -4 4
-10z m-1796 -29 c-2 -3 -12 3 -22 13 -16 17 -16 18 5 5 12 -7 20 -15 17 -18z
m82 -48 c-6 -6 -66 29 -66 39 0 4 16 -2 35 -14 20 -11 34 -23 31 -25z m-4186
22 c-7 -9 -15 -13 -19 -10 -3 3 1 10 9 15 21 14 24 12 10 -5z m5945 -12 c27
-31 31 -43 14 -43 -5 0 -8 4 -4 9 3 6 0 13 -7 18 -17 11 -42 43 -34 43 4 0 18
-12 31 -27z m1030 -13 c16 -16 25 -30 21 -30 -4 0 -21 14 -38 30 -16 17 -26
30 -21 30 5 0 22 -13 38 -30z m-8161 -70 c12 -14 25 -34 30 -45 9 -24 9 -24
-54 60 -46 63 -41 60 24 -15z m1136 40 c-12 -16 -24 -30 -26 -30 -3 0 4 14 16
30 12 17 24 30 26 30 3 0 -4 -13 -16 -30z m4286 3 c-6 -6 -36 9 -36 18 0 5 9
4 20 -3 10 -7 18 -14 16 -15z m444 12 c-7 -9 -15 -13 -17 -11 -7 7 7 26 19 26
6 0 6 -6 -2 -15z m-366 -63 c-4 -6 -64 31 -64 40 0 4 15 -3 34 -15 18 -12 32
-24 30 -25z m336 44 c0 -3 -13 -14 -30 -26 -17 -12 -30 -16 -30 -10 0 7 9 14
20 17 11 3 20 9 20 14 0 5 5 9 10 9 6 0 10 -2 10 -4z m-6410 -239 c22 -109 40
-203 40 -209 0 -31 -11 15 -49 202 -23 113 -44 214 -47 225 l-4 20 10 -20 c5
-11 28 -109 50 -218z m7745 224 c-3 -6 0 -13 7 -18 22 -14 60 -73 54 -86 -2
-7 -5 -5 -5 5 -1 9 -5 18 -9 20 -10 4 -62 73 -62 81 0 4 5 7 11 7 5 0 8 -4 4
-9z m1054 -26 c19 -19 30 -35 25 -35 -5 0 -24 16 -43 35 -18 19 -29 35 -24 35
4 0 23 -16 42 -35z m-4977 8 c-6 -2 -10 -9 -6 -14 3 -5 0 -9 -5 -9 -12 0 -14
13 -4 23 3 4 11 7 17 6 6 0 5 -3 -2 -6z m-4498 -18 c-4 -9 -16 -21 -28 -27
-19 -10 -19 -9 3 16 28 30 33 32 25 11z m2319 -24 c-15 -22 -29 -36 -31 -31
-3 8 46 70 55 70 2 0 -8 -18 -24 -39z m4557 -44 c0 -5 -17 2 -37 14 -21 13
-46 28 -55 33 -10 6 -18 14 -18 18 0 10 110 -55 110 -65z m-2405 43 c3 -5 1
-10 -4 -10 -6 0 -11 5 -11 10 0 6 2 10 4 10 3 0 8 -4 11 -10z m2496 -13 c-10
-9 -11 -8 -5 6 3 10 9 15 12 12 3 -3 0 -11 -7 -18z m2585 -42 c20 -25 34 -48
32 -51 -3 -3 -16 10 -29 28 -12 18 -32 41 -43 50 -12 10 -16 18 -9 18 6 0 28
-20 49 -45z m-9616 5 c-13 -11 -25 -20 -27 -20 -9 0 18 39 29 43 23 8 22 -2
-2 -23z m4520 20 c0 -5 -5 -10 -11 -10 -5 0 -7 5 -4 10 3 6 8 10 11 10 2 0 4
-4 4 -10z m2475 -10 c-18 -20 -51 -28 -40 -10 4 6 10 8 15 5 4 -3 13 2 20 10
7 8 15 15 18 15 3 0 -3 -9 -13 -20z m-4675 -31 c-12 -16 -25 -28 -28 -25 -5 6
36 56 45 56 3 0 -5 -14 -17 -31z m2175 11 c3 -5 1 -10 -4 -10 -6 0 -11 5 -11
10 0 6 2 10 4 10 3 0 8 -4 11 -10z m-3073 -45 c5 -5 18 -22 31 -36 12 -14 29
-36 37 -49 8 -12 20 -28 26 -34 6 -6 17 -23 24 -36 15 -30 5 -20 -41 40 -36
48 -50 66 -86 108 -13 15 -23 34 -23 42 1 11 4 9 12 -5 6 -11 15 -24 20 -30z
m7153 35 c3 -5 1 -10 -4 -10 -6 0 -11 5 -11 10 0 6 2 10 4 10 3 0 8 -4 11 -10z
m-8625 -30 c-6 -11 -15 -20 -20 -20 -14 0 -12 6 6 24 21 22 27 20 14 -4z
m4528 0 c-13 -20 -28 -27 -28 -12 0 10 22 32 32 32 5 0 3 -9 -4 -20z m4162
-70 c0 -8 -10 1 -22 20 -13 19 -26 37 -30 38 -5 2 -8 9 -8 15 1 17 59 -55 60
-73z m1073 -10 c-6 -6 -53 51 -53 65 0 6 14 -6 29 -25 16 -19 27 -37 24 -40z
m-7449 36 c-3 -9 -13 -16 -22 -16 -13 0 -12 3 4 19 22 21 27 21 18 -3z m-2355
-5 c-7 -10 -21 -24 -33 -31 l-21 -13 20 24 c19 22 36 38 43 39 1 0 -3 -8 -9
-19z m4541 9 c0 -5 -4 -10 -10 -10 -5 0 -10 5 -10 10 0 6 5 10 10 10 6 0 10
-4 10 -10z m-20 -27 c0 -14 -19 -38 -25 -32 -8 8 5 39 16 39 5 0 9 -3 9 -7z
m-2230 -52 c-11 -22 -30 -28 -30 -11 0 6 7 13 15 16 8 4 15 14 16 23 0 9 3 11
5 4 3 -7 0 -21 -6 -32z m-2368 -9 c-18 -16 -32 -33 -32 -38 0 -5 -9 -15 -20
-22 -11 -7 -20 -9 -20 -6 0 10 83 94 94 94 5 0 -5 -13 -22 -28z m4568 8 c0 -5
-4 -10 -10 -10 -5 0 -10 5 -10 10 0 6 5 10 10 10 6 0 10 -4 10 -10z m-20 -30
c0 -5 -4 -10 -10 -10 -5 0 -10 5 -10 10 0 6 5 10 10 10 6 0 10 -4 10 -10z
m-2241 -32 c0 -7 -14 -24 -32 -38 l-32 -25 29 38 c31 40 36 44 35 25z m2221 2
c0 -5 -4 -10 -10 -10 -5 0 -10 5 -10 10 0 6 5 10 10 10 6 0 10 -4 10 -10z
m-2762 -40 c17 -27 10 -25 -19 6 -13 14 -17 23 -9 19 9 -3 21 -14 28 -25z
m2733 -3 c-10 -9 -11 -8 -5 6 3 10 9 15 12 12 3 -3 0 -11 -7 -18z m-2608 -111
c18 -15 27 -27 20 -25 -19 6 -113 100 -113 112 0 7 14 -4 31 -23 17 -19 45
-48 62 -64z m2585 72 c-8 -12 -21 -24 -29 -26 -8 -2 -5 3 6 12 11 8 16 16 10
16 -5 0 -3 5 5 10 22 14 24 12 8 -12z m-2240 -8 c-14 -22 -24 -19 -15 5 4 8
11 15 17 15 6 0 6 -7 -2 -20z m-1274 -55 c5 -22 4 -26 -4 -15 -5 8 -10 24 -10
34 0 26 6 18 14 -19z m1225 1 c-12 -14 -27 -26 -32 -26 -5 0 4 13 19 30 34 35
45 32 13 -4z m2251 6 c0 -12 -22 -32 -34 -32 -6 0 -3 5 7 11 9 6 15 14 12 20
-4 5 -1 9 4 9 6 0 11 -4 11 -8z m-2290 -46 c0 -3 -4 -8 -10 -11 -5 -3 -10 -1
-10 4 0 6 5 11 10 11 6 0 10 -2 10 -4z m-195 -27 c4 -6 13 -8 21 -5 9 4 14 0
12 -8 -2 -8 8 -25 22 -39 34 -35 53 -58 49 -61 -2 -2 -32 25 -66 60 -34 35
-58 64 -53 64 5 0 12 -5 15 -11z m162 -17 c-21 -23 -21 -32 0 -32 9 0 14 -2
11 -5 -3 -4 -17 -3 -32 1 l-26 6 22 24 c27 28 49 33 25 6z m-1133 -18 c8 -22
8 -24 -6 -24 -6 0 -8 3 -5 7 4 3 2 12 -4 20 -7 8 -8 13 -1 13 5 0 13 -7 16
-16z m1061 6 c13 -5 14 -9 5 -9 -8 0 -24 4 -35 9 -13 5 -14 9 -5 9 8 0 24 -4
35 -9z m2313 -24 c-13 -19 -24 -33 -26 -31 -5 4 37 65 44 65 2 0 -6 -15 -18
-34z m-3344 -116 c19 -98 19 -100 8 -100 -4 0 -9 10 -9 23 -2 41 -7 67 -13 67
-3 0 -6 12 -6 28 -1 15 -4 40 -7 56 -4 16 -3 25 2 20 4 -5 16 -47 25 -94z
m3316 66 c0 -3 -4 -8 -10 -11 -5 -3 -10 -1 -10 4 0 6 5 11 10 11 6 0 10 -2 10
-4z m-2240 -39 c0 -7 11 -24 25 -39 14 -15 25 -32 25 -38 0 -5 5 -10 10 -10 6
0 10 -6 10 -14 0 -8 6 -16 13 -19 6 -2 9 -7 6 -11 -4 -4 -28 23 -54 61 -51 73
-66 101 -47 89 7 -4 12 -13 12 -19z m2220 9 c0 -3 -4 -8 -10 -11 -5 -3 -10 -1
-10 4 0 6 5 11 10 11 6 0 10 -2 10 -4z m-32 -46 c-7 -10 -14 -17 -17 -15 -4 4
18 35 25 35 2 0 -1 -9 -8 -20z m-34 -55 c-9 -14 -19 -24 -21 -21 -6 6 20 46
30 46 4 0 0 -11 -9 -25z m-46 -70 c-11 -20 -23 -34 -25 -31 -6 6 29 66 39 66
4 0 -2 -16 -14 -35z m-3139 -58 c14 -45 27 -89 29 -97 4 -11 2 -12 -7 -4 -7 6
-14 20 -16 30 -2 11 -4 20 -4 22 -1 1 -1 3 0 5 0 1 -5 16 -11 32 -18 43 -29
95 -21 95 3 0 17 -37 30 -83z m1156 25 c-6 -7 -34 29 -34 43 0 6 9 -1 20 -14
11 -13 17 -26 14 -29z m1942 -36 c-7 -13 -15 -22 -19 -20 -8 5 13 44 23 44 4
0 2 -11 -4 -24z m-1854 -138 c-2 -5 1 -8 6 -8 6 0 11 -5 11 -11 0 -5 -5 -7
-10 -4 -15 9 -89 163 -82 170 8 8 82 -137 75 -147z m1821 88 c-3 -9 -10 -16
-15 -16 -6 0 -5 9 1 21 13 24 24 20 14 -5z m-40 -60 c-9 -15 -19 -25 -21 -22
-3 2 3 16 13 30 9 15 19 25 21 22 3 -2 -3 -16 -13 -30z m-2981 -16 c3 -11 1
-20 -4 -20 -5 0 -9 2 -9 4 0 2 -3 11 -6 20 -3 9 -2 16 4 16 5 0 12 -9 15 -20z
m2951 -35 c-4 -8 -11 -15 -16 -15 -6 0 -5 6 2 15 7 8 14 15 16 15 2 0 1 -7 -2
-15z m-2939 -5 c3 -5 2 -10 -4 -10 -5 0 -13 5 -16 10 -3 6 -2 10 4 10 5 0 13
-4 16 -10z m26 -81 c22 -65 21 -59 10 -59 -9 0 -27 57 -23 73 1 4 -3 7 -9 7
-6 0 -9 6 -6 14 3 8 2 17 -4 20 -5 2 -4 3 2 2 7 -1 20 -27 30 -57z m2889 51
c0 -5 -5 -10 -11 -10 -5 0 -7 5 -4 10 3 6 8 10 11 10 2 0 4 -4 4 -10z m-1689
-12 c1 -7 1 -16 0 -20 0 -5 4 -8 9 -8 6 0 10 -5 10 -11 0 -8 -4 -8 -14 0 -17
14 -28 51 -15 51 5 0 10 -6 10 -12z m1674 -18 c-3 -5 -11 -10 -16 -10 -6 0 -7
5 -4 10 3 6 11 10 16 10 6 0 7 -4 4 -10z m-31 -44 c-3 -9 -10 -16 -15 -16 -6
0 -5 9 1 21 13 24 24 20 14 -5z m-1610 -11 c3 -8 1 -15 -3 -15 -5 0 -11 7 -15
15 -3 8 -1 15 3 15 5 0 11 -7 15 -15z m1586 -25 c0 -5 -5 -10 -11 -10 -5 0 -7
5 -4 10 3 6 8 10 11 10 2 0 4 -4 4 -10z m660 2 c0 -5 -12 -14 -27 -21 l-28
-11 24 20 c26 22 31 24 31 12z m-3454 -30 c0 -4 6 -20 12 -35 7 -16 10 -33 6
-38 -3 -5 0 -9 6 -9 7 0 10 -7 6 -15 -3 -8 -1 -15 4 -15 6 0 10 -4 10 -10 0
-5 -4 -10 -9 -10 -11 0 -33 59 -26 70 3 5 1 10 -5 12 -5 1 -13 19 -16 38 -4
20 -3 32 2 27 5 -5 9 -12 10 -15z m1220 9 c-4 -5 -1 -12 4 -14 6 -3 5 -4 -2
-3 -15 3 -23 26 -8 26 6 0 9 -4 6 -9z m1554 -11 c0 -5 -5 -10 -11 -10 -5 0 -7
5 -4 10 3 6 8 10 11 10 2 0 4 -4 4 -10z m594 -25 c-22 -17 -48 -20 -39 -4 8
12 48 29 54 23 3 -2 -4 -11 -15 -19z m-2132 -17 c-7 -7 -12 -8 -12 -2 0 6 3
14 7 17 3 4 9 5 12 2 2 -3 -1 -11 -7 -17z m1506 -12 c-13 -19 -26 -32 -30 -30
-4 3 1 15 12 26 11 12 20 25 20 30 0 4 5 8 10 8 6 0 0 -15 -12 -34z m536 -20
c-23 -18 -54 -27 -54 -17 0 9 63 40 69 35 3 -2 -4 -11 -15 -18z m-2016 -10
c15 -33 2 -42 -15 -10 -15 31 -16 34 -5 34 5 0 14 -11 20 -24z m1442 -21 c0
-8 -4 -15 -10 -15 -5 0 -7 7 -4 15 4 8 8 15 10 15 2 0 4 -7 4 -15z m470 -25
c-8 -5 -17 -7 -19 -4 -3 3 1 9 9 14 8 5 17 7 19 4 3 -3 -1 -9 -9 -14z m-1895
-21 c-4 -5 -2 -9 4 -9 6 0 8 -7 5 -15 -4 -8 -1 -15 6 -15 6 0 8 -5 4 -12 -5
-8 -12 -2 -20 17 -16 37 -17 58 -4 50 6 -4 8 -11 5 -16z m1372 -43 c-23 -36
-44 -62 -46 -60 -3 2 5 17 16 32 11 15 27 42 37 60 9 17 21 32 25 32 5 0 -9
-29 -32 -64z m-2592 17 c3 -13 2 -23 -3 -23 -11 0 -22 24 -22 48 0 21 15 5 25
-25z m3051 9 c-8 -13 -66 -33 -66 -23 0 8 63 41 69 35 1 -1 0 -7 -3 -12z
m-100 -51 c-16 -17 -56 -35 -56 -25 0 4 62 44 69 44 2 0 -4 -9 -13 -19z
m-2939 2 c-4 -3 -2 -12 5 -20 9 -12 4 -33 -6 -22 -12 14 -16 49 -5 49 7 0 9
-3 6 -7z m1243 -7 c0 -3 -4 -8 -10 -11 -5 -3 -10 -1 -10 4 0 6 5 11 10 11 6 0
10 -2 10 -4z m4 -41 c-4 -8 -1 -15 6 -15 7 0 10 -7 7 -15 -4 -8 -2 -17 4 -20
5 -4 6 -11 2 -18 -4 -6 -12 3 -19 24 -16 43 -17 59 -4 59 5 0 7 -7 4 -15z
m1597 -9 c-10 -12 -61 -29 -61 -20 0 5 54 33 64 34 5 0 3 -6 -3 -14z m-2827
-11 c-4 -8 -2 -15 3 -15 5 0 10 -7 10 -15 0 -15 -17 -22 -17 -7 0 4 -3 17 -6
30 -4 13 -2 22 5 22 5 0 8 -7 5 -15z m2746 -35 c0 -5 -3 -10 -7 -10 -5 0 -19
-3 -33 -6 l-25 -5 25 15 c30 18 40 20 40 6z m-95 -50 c-3 -5 -14 -10 -23 -10
-15 0 -15 2 -2 10 20 13 33 13 25 0z m-1380 -20 c-3 -5 -1 -19 5 -30 7 -13 7
-20 0 -20 -5 0 -10 3 -10 8 0 4 -3 17 -6 30 -4 13 -2 22 5 22 7 0 9 -4 6 -10z
m19 -75 c-4 -8 -8 -15 -10 -15 -2 0 -4 7 -4 15 0 8 4 15 10 15 5 0 7 -7 4 -15z
m21 -82 c4 -21 10 -42 13 -48 3 -5 7 -18 8 -30 1 -11 12 -58 24 -104 11 -46
19 -88 18 -93 -2 -5 -22 63 -44 151 -21 89 -36 161 -33 161 4 0 10 -17 14 -37z
m90 -391 c-5 -5 -25 69 -24 88 0 8 7 -7 14 -35 8 -27 12 -51 10 -53z m15 -56
c0 -26 -6 -18 -14 19 -5 22 -4 26 4 15 5 -8 10 -24 10 -34z m10 -41 c0 -8 -2
-15 -4 -15 -2 0 -6 7 -10 15 -3 8 -1 15 4 15 6 0 10 -7 10 -15z m10 -35 c0 -5
-2 -10 -4 -10 -3 0 -8 5 -11 10 -3 6 -1 10 4 10 6 0 11 -4 11 -10z m10 -46 c0
-8 -4 -14 -8 -14 -4 0 -8 9 -8 19 0 11 4 17 8 15 4 -3 8 -12 8 -20z m24 -127
c10 -49 15 -91 12 -95 -3 -3 -6 -1 -7 4 0 5 -2 16 -4 24 -3 16 -12 60 -20 100
-3 14 -7 36 -10 49 -2 14 -1 20 4 15 4 -5 16 -49 25 -97z m26 -127 c0 -11 -2
-20 -4 -20 -2 0 -6 9 -9 20 -3 11 -1 20 4 20 5 0 9 -9 9 -20z m7 -50 c-3 -10
0 -21 7 -23 6 -2 8 -8 4 -12 -11 -12 -19 -1 -22 29 -2 14 1 26 7 26 5 0 7 -9
4 -20z m28 -119 c-3 -5 -1 -12 4 -16 5 -3 9 -14 8 -25 -1 -10 -5 -16 -10 -13
-4 3 -6 11 -3 19 3 7 1 16 -4 19 -13 8 -13 25 1 25 5 0 8 -4 4 -9z m35 -106
c0 -8 -4 -15 -10 -15 -5 0 -10 7 -10 15 0 8 5 15 10 15 6 0 10 -7 10 -15z m10
-35 c0 -5 -4 -10 -10 -10 -5 0 -10 5 -10 10 0 6 5 10 10 10 6 0 10 -4 10 -10z
m10 -41 c0 -5 -4 -9 -10 -9 -5 0 -10 7 -10 16 0 8 5 12 10 9 6 -3 10 -10 10
-16z m10 -29 c0 -5 -4 -10 -10 -10 -5 0 -10 5 -10 10 0 6 5 10 10 10 6 0 10
-4 10 -10z m10 -30 c0 -5 -4 -10 -10 -10 -5 0 -10 5 -10 10 0 6 5 10 10 10 6
0 10 -4 10 -10z m10 -30 c0 -5 -4 -10 -10 -10 -5 0 -10 5 -10 10 0 6 5 10 10
10 6 0 10 -4 10 -10z m10 -30 c0 -5 -4 -10 -10 -10 -5 0 -10 5 -10 10 0 6 5
10 10 10 6 0 10 -4 10 -10z m10 -30 c0 -5 -4 -10 -10 -10 -5 0 -10 5 -10 10 0
6 5 10 10 10 6 0 10 -4 10 -10z m13 -37 c2 -10 8 -26 12 -35 4 -10 3 -18 -3
-18 -5 0 -12 8 -15 18 -2 9 -8 25 -12 35 -4 9 -3 17 3 17 5 0 12 -8 15 -17z
m24 -70 c-4 -3 -2 -12 4 -20 9 -9 8 -13 0 -13 -6 0 -11 2 -11 4 0 2 -3 11 -6
20 -4 10 -1 16 7 16 7 0 9 -3 6 -7z m27 -59 c9 -22 -3 -32 -14 -14 -12 19 -12
30 -1 30 5 0 12 -7 15 -16z m16 -49 c7 -9 8 -15 2 -15 -5 0 -12 7 -16 15 -3 8
-4 15 -2 15 2 0 9 -7 16 -15z m15 -35 c3 -5 1 -10 -4 -10 -6 0 -11 5 -11 10 0
6 2 10 4 10 3 0 8 -4 11 -10z m19 -36 c4 -10 1 -14 -6 -12 -15 5 -23 28 -10
28 5 0 13 -7 16 -16z m11 -34 c-3 -5 -1 -10 4 -10 6 0 11 -5 11 -11 0 -16 32
-83 44 -91 6 -4 8 -8 3 -8 -4 0 4 -18 18 -40 14 -22 25 -42 25 -44 0 -9 100
-177 142 -238 21 -32 32 -55 23 -52 -8 4 -15 10 -15 14 0 4 -17 34 -39 66 -47
72 -136 226 -180 314 -18 36 -37 73 -42 82 -12 23 -11 28 2 28 5 0 7 -4 4 -10z
m6443 -365 c-3 -3 -9 2 -12 12 -6 14 -5 15 5 6 7 -7 10 -15 7 -18z m21 -55 c6
-19 7 -30 2 -25 -5 6 -13 24 -17 40 -9 39 0 30 15 -15z m-6164 -100 c3 -5 2
-10 -4 -10 -5 0 -13 5 -16 10 -3 6 -2 10 4 10 5 0 13 -4 16 -10z m38 -51 c15
-18 25 -34 21 -38 -3 -3 -11 3 -18 13 -6 11 -19 28 -28 38 -10 10 -15 18 -10
18 4 0 20 -14 35 -31z m75 -101 c22 -29 51 -66 66 -83 14 -16 26 -34 26 -40 0
-5 -11 4 -25 20 -13 17 -33 40 -45 52 -11 12 -20 25 -20 28 0 3 -11 18 -25 33
-22 24 -31 42 -21 42 2 0 22 -24 44 -52z m161 -190 c6 -10 10 -18 8 -18 -6 0
-67 60 -67 66 0 9 47 -30 59 -48z m5419 -43 c-3 -3 -9 2 -12 12 -6 14 -5 15 5
6 7 -7 10 -15 7 -18z"/>
</g>
</svg>
